<?xml version="1.0" encoding="UTF-8"?>
<mxfile host="app.diagrams.net">
  <diagram name="Diagrama de Classes" id="classes1">
    <mxGraphModel dx="1296" dy="772" grid="1" gridSize="10" guides="1" tooltips="1">
      <root>
        <mxCell id="0"/>
        <mxCell id="1" parent="0"/>
        <mxCell id="class1" value="Task&#xa;- id: Long&#xa;- titulo: String&#xa;- descricao: String&#xa;- prioridade: String&#xa;- status: String" style="shape=umlClass;html=1;" vertex="1" parent="1">
          <mxGeometry x="100" y="100" width="180" height="120" as="geometry"/>
        </mxCell>
        <mxCell id="class2" value="TaskController" style="shape=umlClass;html=1;" vertex="1" parent="1">
          <mxGeometry x="320" y="80" width="180" height="60" as="geometry"/>
        </mxCell>
        <mxCell id="class3" value="TaskRepository" style="shape=umlClass;html=1;" vertex="1" parent="1">
          <mxGeometry x="320" y="200" width="180" height="60" as="geometry"/>
        </mxCell>
        <mxCell id="rel1" edge="1" source="class2" target="class1" parent="1" style="endArrow=none;">
          <mxGeometry relative="1" as="geometry"/>
        </mxCell>
        <mxCell id="rel2" edge="1" source="class3" target="class1" parent="1" style="endArrow=none;">
          <mxGeometry relative="1" as="geometry"/>
        </mxCell>
      </root>
    </mxGraphModel>
  </diagram>
</mxfile>
